<svg width="30" height="42" viewBox="0 0 30 42" fill="none" xmlns="http://www.w3.org/2000/svg">
<path d="M15 41.7454C15 31.0404 30 28.1504 30 15.6299C30 7.13849 23.2843 0.254845 15 0.254845C6.71572 0.254845 -1.90735e-06 7.13849 -1.90735e-06 15.6299C7.82013e-05 28.122 15 31.0306 15 41.7454ZM13.6824 5.55259C16.8242 5.55259 19.7495 6.66243 20.5011 9.75216C21.2526 12.8417 19.8386 15.7837 16.8242 16.554C12.0273 17.7798 12.3549 22.3144 15 24.0191C0.836086 22.9022 3.67088 5.55259 13.6824 5.55259Z" fill="url(#paint0_linear_2020_1209)"/>
<defs>
<linearGradient id="paint0_linear_2020_1209" x1="3.75" y1="41.2551" x2="35.5235" y2="9.90828" gradientUnits="userSpaceOnUse">
<stop stop-color="#F94800"/>
<stop offset="1" stop-color="#4B50E6"/>
</linearGradient>
</defs>
</svg>
