<svg width="20" height="18" viewBox="0 0 20 18" fill="none" xmlns="http://www.w3.org/2000/svg">
<path fill-rule="evenodd" clip-rule="evenodd" d="M15.7689 5.3818H20C20 1.98459 17.9644 0 14.5156 0H5.48445C2.03556 0 0 1.98459 0 5.33847V12.6615C0 16.0154 2.03556 18 5.48445 18H14.5156C17.9644 18 20 16.0154 20 12.6615V12.3495H15.7689C13.8052 12.3495 12.2133 10.7975 12.2133 8.883C12.2133 6.96849 13.8052 5.41647 15.7689 5.41647V5.3818ZM15.7689 6.87187H19.2534C19.6657 6.87187 20 7.1978 20 7.59985V10.1304C19.9952 10.5305 19.6637 10.8537 19.2534 10.8584H15.8489C14.8548 10.8714 13.9855 10.2078 13.76 9.26379C13.6471 8.67776 13.8056 8.07303 14.1931 7.61168C14.5806 7.15033 15.1574 6.87954 15.7689 6.87187ZM15.92 9.53207H16.2489C16.6711 9.53207 17.0133 9.19838 17.0133 8.78676C17.0133 8.37514 16.6711 8.04146 16.2489 8.04146H15.92C15.7181 8.03914 15.5236 8.11573 15.38 8.25413C15.2364 8.39252 15.1556 8.58122 15.1556 8.7781C15.1555 9.19114 15.4964 9.52732 15.92 9.53207ZM4.73769 5.38124H10.3821C10.8043 5.38124 11.1466 5.04755 11.1466 4.63593C11.1466 4.22431 10.8043 3.89062 10.3821 3.89062H4.73769C4.31894 3.8906 3.97811 4.21903 3.97324 4.62726C3.97321 5.04031 4.31406 5.37649 4.73769 5.38124Z" fill="#FAFAFC"/>
</svg>
