<svg width="30" height="30" viewBox="0 0 30 30" fill="none" xmlns="http://www.w3.org/2000/svg">
<path d="M2.80418 16.1778L2.80417 16.1778C2.19922 16.7337 2.19922 17.6349 2.80417 18.1907L13.7579 28.2551C14.3629 28.8109 15.3437 28.8109 15.9487 28.2551C16.5536 27.6993 16.5536 26.7981 15.9487 26.2422L4.99492 16.1778C4.38997 15.622 3.40914 15.622 2.80418 16.1778Z" fill="#E41B9F"/>
<path fill-rule="evenodd" clip-rule="evenodd" d="M0.512958 8.35079L6.11253 3.20582C9.81925 -0.199945 14.0518 0.0657551 17.3642 3.10926C17.7849 3.49572 18.3106 4.17201 18.6261 4.60679C18.7575 4.77591 18.8363 4.8967 18.9415 4.99326C19.1519 5.18653 19.3621 5.23485 19.809 5.11405C22.5694 4.4136 24.988 5.18653 27.3014 7.31211C30.535 10.2831 30.8767 14.2686 26.7757 18.0368L18.9152 25.259C18.4946 25.6455 18.1529 25.6213 17.7323 25.2348L0.539244 9.4377C0.118622 9.05124 0.092337 8.73725 0.512958 8.35079ZM12.0019 11.0802L13.3426 9.84824C14.0261 9.22027 14.1312 8.35071 13.3163 7.60194C12.5277 6.87726 11.555 6.94973 10.8714 7.57778L9.5307 8.80965C9.11009 9.19611 9.13638 9.5101 9.557 9.89656L10.8188 11.056C11.2394 11.4425 11.5813 11.4667 12.0019 11.0802ZM18.4164 16.9746L21.9392 13.7378C22.9644 12.7958 23.1748 11.9262 22.3072 11.1291C21.466 10.3562 20.4933 10.5252 19.468 11.4673L15.9453 14.704C15.5246 15.0905 15.5509 15.4045 15.9715 15.7909L17.2335 16.9504C17.6541 17.3369 17.9958 17.361 18.4164 16.9746Z" fill="#2926CF"/>
</svg>
