<svg width="24" height="21" viewBox="0 0 24 21" fill="none" xmlns="http://www.w3.org/2000/svg">
<path fill-rule="evenodd" clip-rule="evenodd" d="M18.4616 8.14966H22.3642C22.826 8.14966 23.2004 8.50455 23.2004 8.94234V11.6979C23.1951 12.1335 22.8238 12.4854 22.3642 12.4905H18.5512C17.4378 12.5047 16.4642 11.7822 16.2117 10.7542C16.0852 10.1161 16.2627 9.45758 16.6967 8.95522C17.1307 8.45287 17.7767 8.158 18.4616 8.14966ZM18.6312 11.047H18.9995C19.4724 11.047 19.8557 10.6837 19.8557 10.2355C19.8557 9.78728 19.4724 9.42393 18.9995 9.42393H18.6312C18.405 9.42141 18.1872 9.5048 18.0264 9.6555C17.8655 9.8062 17.775 10.0117 17.775 10.226C17.775 10.6758 18.1567 11.0419 18.6312 11.047Z" fill="white" fill-opacity="0.4"/>
<path d="M18.4611 6.52681H23.2C23.2 2.82763 20.9202 0.666626 17.0574 0.666626H6.94256C3.07981 0.666626 0.799988 2.82763 0.799988 6.47963V14.4536C0.799988 18.1056 3.07981 20.2666 6.94256 20.2666H17.0574C20.9202 20.2666 23.2 18.1056 23.2 14.4536V14.1139H18.4611C16.2618 14.1139 14.4789 12.4239 14.4789 10.3392C14.4789 8.25454 16.2618 6.56456 18.4611 6.56456V6.52681Z" fill="white"/>
<path d="M12.4277 6.52717H6.10593C5.63147 6.522 5.24972 6.15594 5.24976 5.70617C5.25521 5.26165 5.63694 4.90402 6.10593 4.90405H12.4277C12.9006 4.90405 13.2839 5.2674 13.2839 5.71561C13.2839 6.16382 12.9006 6.52717 12.4277 6.52717Z" fill="#4B50E6"/>
</svg>
