<svg width="18" height="18" viewBox="0 0 18 18" fill="none" xmlns="http://www.w3.org/2000/svg">
<path fill-rule="evenodd" clip-rule="evenodd" d="M13.3267 6.28635H16.5C16.5 3.73844 14.9733 2.25 12.3867 2.25H5.61333C3.02667 2.25 1.5 3.73844 1.5 6.25385V11.7461C1.5 14.2616 3.02667 15.75 5.61333 15.75H12.3867C14.9733 15.75 16.5 14.2616 16.5 11.7461V11.5122H13.3267C11.8539 11.5122 10.66 10.3481 10.66 8.91225C10.66 7.47637 11.8539 6.31235 13.3267 6.31235V6.28635ZM13.3267 7.40391H15.94C16.2493 7.40391 16.5 7.64835 16.5 7.94989V9.84782C16.4964 10.1479 16.2478 10.3903 15.94 10.3938H13.3867C12.6411 10.4036 11.9891 9.90588 11.82 9.19784C11.7353 8.75832 11.8542 8.30477 12.1448 7.95876C12.4354 7.61275 12.868 7.40965 13.3267 7.40391ZM13.44 9.39905H13.6867C14.0033 9.39905 14.26 9.14879 14.26 8.84007C14.26 8.53136 14.0033 8.28109 13.6867 8.28109H13.44C13.2886 8.27936 13.1427 8.3368 13.035 8.44059C12.9273 8.54439 12.8667 8.68591 12.8667 8.83357C12.8667 9.14336 13.1223 9.39549 13.44 9.39905ZM5.05327 6.28593H9.2866C9.60324 6.28593 9.85993 6.03566 9.85993 5.72695C9.85993 5.41823 9.60324 5.16797 9.2866 5.16797H5.05327C4.73921 5.16795 4.48358 5.41427 4.47993 5.72045C4.47991 6.03023 4.73555 6.28237 5.05327 6.28593Z" fill="#FAFAFC"/>
</svg>
