<svg width="24" height="25" viewBox="0 0 24 25" fill="none" xmlns="http://www.w3.org/2000/svg">
<g clip-path="url(#clip0_2056_492)">
<path d="M0.0105475 17.7002C-0.0217962 17.8838 0.0200632 18.0728 0.127032 18.2256C0.233954 18.3783 0.397266 18.4824 0.580923 18.5147L3.70172 19.065L1.73583 7.91565L0.0105475 17.7002Z" fill="white"/>
<path d="M3.75886 0.511323C3.57478 0.477901 3.38484 0.519151 3.23123 0.626026C3.07767 0.732948 2.973 0.896682 2.94051 1.08099L2.19482 5.31006L16.3826 2.80834L3.75886 0.511323Z" fill="white"/>
<path d="M23.9892 20.7445L21.0589 4.12588C20.9915 3.74348 20.6269 3.48829 20.2443 3.55556L3.62578 6.48585C3.24338 6.55326 2.988 6.91795 3.05541 7.30035L5.9857 23.919C6.01809 24.1027 6.12211 24.2659 6.27487 24.3729C6.39389 24.4562 6.53484 24.5001 6.67818 24.5001C6.71882 24.5001 6.7597 24.4965 6.80025 24.4894L23.4189 21.5591C23.6025 21.5267 23.7658 21.4227 23.8727 21.2699C23.9797 21.1172 24.0216 20.9282 23.9892 20.7445ZM6.80193 12.3516C6.73453 11.9692 6.9899 11.6045 7.37231 11.5371L18.4514 9.58349C18.8342 9.51609 19.1986 9.77142 19.266 10.1538C19.3334 10.5362 19.078 10.9009 18.6956 10.9683L7.61648 12.9219C7.57518 12.9292 7.53407 12.9327 7.49357 12.9327C7.15875 12.9327 6.86207 12.6927 6.80193 12.3516V12.3516ZM15.9793 17.1591L8.59326 18.4615C8.55196 18.4687 8.51085 18.4723 8.47035 18.4723C8.13552 18.4723 7.83885 18.2323 7.77871 17.8911C7.71131 17.5087 7.96668 17.144 8.34909 17.0766L15.7351 15.7742C16.1178 15.7068 16.4822 15.9622 16.5497 16.3446C16.6171 16.727 16.3617 17.0917 15.9793 17.1591V17.1591ZM19.1839 13.7381L8.10482 15.6917C8.06352 15.6989 8.02242 15.7025 7.98192 15.7025C7.64709 15.7025 7.35042 15.4625 7.29028 15.1213C7.22287 14.7389 7.47824 14.3742 7.86065 14.3068L18.9398 12.3532C19.3225 12.2858 19.6869 12.5412 19.7543 12.9236C19.8217 13.306 19.5664 13.6707 19.1839 13.7381V13.7381Z" fill="white"/>
</g>
<defs>
<clipPath id="clip0_2056_492">
<rect width="24" height="24" fill="white" transform="translate(0 0.5)"/>
</clipPath>
</defs>
</svg>
