<svg width="32" height="21" viewBox="0 0 32 21" fill="none" xmlns="http://www.w3.org/2000/svg">
<path d="M6.76261 4.75641C11.8643 -0.269227 20.1357 -0.269227 25.2374 4.75641L25.8514 5.36126C26.1065 5.61254 26.1065 6.01995 25.8514 6.27123L23.7511 8.34028C23.6235 8.46592 23.4167 8.46592 23.2892 8.34028L22.4443 7.50794C18.8852 4.00193 13.1148 4.00193 9.55577 7.50794L8.65092 8.39931C8.52338 8.52495 8.31659 8.52495 8.18905 8.39931L6.0887 6.33025C5.83361 6.07897 5.83361 5.67156 6.0887 5.42028L6.76261 4.75641ZM29.5812 9.03543L31.4505 10.8769C31.7056 11.1282 31.7056 11.5356 31.4505 11.7869L23.0216 20.0903C22.7665 20.3415 22.3529 20.3415 22.0978 20.0903C22.0978 20.0903 22.0978 20.0903 22.0978 20.0903L16.1155 14.1971C16.0518 14.1343 15.9484 14.1343 15.8846 14.1971C15.8846 14.1971 15.8846 14.1971 15.8846 14.1971L9.9024 20.0903C9.64732 20.3415 9.23375 20.3415 8.97866 20.0903C8.97866 20.0903 8.97866 20.0903 8.97865 20.0903L0.549528 11.7868C0.294444 11.5355 0.294444 11.1281 0.549528 10.8768L2.41885 9.03532C2.67394 8.78404 3.08751 8.78404 3.34259 9.03532L9.32499 14.9286C9.38876 14.9914 9.49216 14.9914 9.55593 14.9286C9.55593 14.9286 9.55593 14.9286 9.55593 14.9286L15.538 9.03532C15.7931 8.78403 16.2067 8.78402 16.4618 9.0353C16.4618 9.0353 16.4618 9.03531 16.4618 9.03531L22.4442 14.9286C22.508 14.9914 22.6113 14.9914 22.6751 14.9286L28.6574 9.03543C28.9125 8.78414 29.3261 8.78414 29.5812 9.03543Z" fill="#3B99FC"/>
</svg>
