<svg width="18" height="18" viewBox="0 0 18 18" fill="none" xmlns="http://www.w3.org/2000/svg">
<mask id="mask0_2020_1249" style="mask-type:luminance" maskUnits="userSpaceOnUse" x="1" y="1" width="16" height="16">
<path fill-rule="evenodd" clip-rule="evenodd" d="M1.50006 1.50024H15.9174V15.5992H1.50006V1.50024Z" fill="white" stroke="white"/>
</mask>
<g mask="url(#mask0_2020_1249)">
<path fill-rule="evenodd" clip-rule="evenodd" d="M8.70893 2.58569C5.34607 2.58569 2.61019 5.26043 2.61019 8.54901C2.61019 11.8376 5.34607 14.513 8.70893 14.513C12.0711 14.513 14.8069 11.8376 14.8069 8.54901C14.8069 5.26043 12.0711 2.58569 8.70893 2.58569ZM8.709 15.5992C4.73397 15.5992 1.49991 12.4366 1.49991 8.54938C1.49991 4.66215 4.73397 1.50024 8.709 1.50024C12.684 1.50024 15.9173 4.66215 15.9173 8.54938C15.9173 12.4366 12.684 15.5992 8.709 15.5992Z" fill="white"/>
<path d="M8.70893 2.08569C5.0806 2.08569 2.11019 4.97374 2.11019 8.54901H3.11019C3.11019 5.54712 5.61155 3.08569 8.70893 3.08569V2.08569ZM2.11019 8.54901C2.11019 12.1242 5.08052 15.013 8.70893 15.013V14.013C5.61163 14.013 3.11019 11.551 3.11019 8.54901H2.11019ZM8.70893 15.013C12.3366 15.013 15.3069 12.1242 15.3069 8.54901H14.3069C14.3069 11.551 11.8055 14.013 8.70893 14.013V15.013ZM15.3069 8.54901C15.3069 4.97377 12.3366 2.08569 8.70893 2.08569V3.08569C11.8055 3.08569 14.3069 5.54708 14.3069 8.54901H15.3069ZM8.709 15.0992C4.99952 15.0992 1.99991 12.15 1.99991 8.54938H0.999908C0.999908 12.7232 4.46841 16.0992 8.709 16.0992V15.0992ZM1.99991 8.54938C1.99991 4.94882 4.99946 2.00024 8.709 2.00024V1.00024C4.46848 1.00024 0.999908 4.37547 0.999908 8.54938H1.99991ZM8.709 2.00024C12.4185 2.00024 15.4173 4.94876 15.4173 8.54938H16.4173C16.4173 4.37554 12.9496 1.00024 8.709 1.00024V2.00024ZM15.4173 8.54938C15.4173 12.1501 12.4184 15.0992 8.709 15.0992V16.0992C12.9496 16.0992 16.4173 12.7231 16.4173 8.54938H15.4173Z" fill="white"/>
</g>
<mask id="mask1_2020_1249" style="mask-type:luminance" maskUnits="userSpaceOnUse" x="12" y="12" width="5" height="5">
<path fill-rule="evenodd" clip-rule="evenodd" d="M12.781 12.8699H16.5V16.4999H12.781V12.8699Z" fill="white" stroke="white"/>
</mask>
<g mask="url(#mask1_2020_1249)">
<path fill-rule="evenodd" clip-rule="evenodd" d="M15.945 16.4999C15.8036 16.4999 15.6615 16.4471 15.5526 16.3414L12.9441 13.7977C12.7272 13.5856 12.7264 13.2418 12.9433 13.0297C13.1595 12.8161 13.5111 12.8176 13.7287 13.0282L16.3373 15.5727C16.5542 15.7848 16.5549 16.1279 16.338 16.34C16.2299 16.4471 16.0871 16.4999 15.945 16.4999Z" fill="white"/>
<path d="M15.945 16.4999C15.8036 16.4999 15.6615 16.4471 15.5526 16.3414L12.9441 13.7977C12.7272 13.5856 12.7264 13.2418 12.9433 13.0297C13.1595 12.8161 13.5111 12.8176 13.7287 13.0282L16.3373 15.5727C16.5542 15.7848 16.5549 16.1279 16.338 16.34C16.2299 16.4471 16.0871 16.4999 15.945 16.4999" stroke="white"/>
</g>
</svg>
