<svg width="20" height="24" viewBox="0 0 20 24" fill="none" xmlns="http://www.w3.org/2000/svg">
<path d="M14.6675 16.2915L16.2946 13.7138C19.9249 7.96288 19.6849 2.95358 19.4256 1.11031C19.3983 0.910434 19.284 0.734158 19.115 0.625667C18.945 0.517417 18.7371 0.489389 18.5438 0.548202C16.7529 1.09358 12.0776 3.00201 8.44408 8.75816L6.81652 11.3365L6.13801 11.3566C4.82964 11.3965 3.62569 12.0841 2.92652 13.1917L0.98441 16.2683C0.869392 16.4505 0.863605 16.6825 0.969431 16.8707C1.07632 17.0588 1.27777 17.1722 1.4936 17.166L3.69018 17.1123C4.30668 17.0978 4.91378 17.2646 5.43558 17.594L6.57257 18.3117L5.63141 19.8027C5.45826 20.0769 5.54014 20.4392 5.81378 20.6119L6.72416 21.1866C6.99779 21.3593 7.36 21.2774 7.53314 21.0031L8.47431 19.5122L9.61065 20.2295C10.1324 20.5589 10.5456 21.0343 10.7971 21.5995L11.6926 23.6041C11.7798 23.8016 11.9688 23.9347 12.1846 23.9503C12.4001 23.9649 12.607 23.8599 12.722 23.6776L14.6641 20.601C15.3625 19.4947 15.4647 18.1117 14.9394 16.9125L14.6675 16.2915ZM13.2919 9.77527C12.3475 9.17916 12.0644 7.92913 12.6605 6.98479C13.257 6.0398 14.5069 5.75839 15.4512 6.3545C16.3949 6.9502 16.6785 8.19957 16.0819 9.14456C15.4858 10.0889 14.2356 10.371 13.2919 9.77527Z" fill="white"/>
</svg>
