<svg width="30" height="30" viewBox="0 0 30 30" fill="none" xmlns="http://www.w3.org/2000/svg">
<path d="M29.7935 15.0003C29.7935 23.1706 23.1702 29.7938 15.0001 29.7938C6.82994 29.7938 0.206665 23.1706 0.206665 15.0003C0.206665 6.83018 6.82994 0.206909 15.0001 0.206909C23.1702 0.206909 29.7935 6.83018 29.7935 15.0003Z" fill="#0052FF"/>
<path d="M15.0034 9.79924C12.1299 9.79924 9.8025 12.1266 9.8025 15C9.8025 17.8735 12.1299 20.2009 15.0034 20.2009C17.5777 20.2009 19.7144 18.3242 20.1262 15.8669H25.366C24.9239 21.2064 20.4555 25.4017 15.0034 25.4017C9.26074 25.4017 4.60172 20.7426 4.60172 15C4.60172 9.25748 9.26074 4.59845 15.0034 4.59845C20.4555 4.59845 24.9239 8.79374 25.366 14.1333H20.1218C19.7101 11.6759 17.5777 9.79924 15.0034 9.79924Z" fill="white"/>
</svg>
