<svg width="20" height="24" viewBox="0 0 20 24" fill="none" xmlns="http://www.w3.org/2000/svg">
<rect x="5.25" y="8" width="13" height="4" fill="white" fill-opacity="0.4"/>
<path fill-rule="evenodd" clip-rule="evenodd" d="M6.63335 0.800049H13.8317C16.9934 0.800049 19.5484 1.9984 19.5834 5.04468V22.0456C19.5834 22.236 19.5367 22.4264 19.4434 22.5944C19.2917 22.8632 19.035 23.0648 18.72 23.1544C18.4167 23.244 18.0784 23.1992 17.7984 23.0424L10.2384 19.4137L2.66669 23.0424C2.49285 23.1309 2.29335 23.188 2.09502 23.188C1.44169 23.188 0.916687 22.6728 0.916687 22.0456V5.04468C0.916687 1.9984 3.48335 0.800049 6.63335 0.800049ZM5.84075 9.33442H14.6257C15.1274 9.33442 15.5357 8.94132 15.5357 8.44966C15.5357 7.95688 15.1274 7.56489 14.6257 7.56489H5.84075C5.33908 7.56489 4.93075 7.95688 4.93075 8.44966C4.93075 8.94132 5.33908 9.33442 5.84075 9.33442Z" fill="white"/>
</svg>
